<svg width="70" height="70" viewBox="0 0 70 70" fill="none" xmlns="http://www.w3.org/2000/svg">
<circle cx="35" cy="35" r="34" fill="#FB9826" fill-opacity="0.1" stroke="#FB9826" stroke-width="2"/>
<path d="M35 44.0417C34.651 44.0417 34.368 44.3247 34.368 44.6737C34.368 45.0227 34.651 45.3056 35 45.3056C35.349 45.3056 35.6319 45.0227 35.6319 44.6737C35.6319 44.3247 35.349 44.0417 35 44.0417V44.0417" stroke="#FB9826" stroke-width="2" stroke-linecap="round" stroke-linejoin="round"/>
<path d="M35 38.9861V26.3472" stroke="#FB9826" stroke-width="2" stroke-linecap="round"/>
<path fill-rule="evenodd" clip-rule="evenodd" d="M37.7317 15.4104C37.22 14.3687 36.1605 13.7087 35 13.7087C33.8395 13.7087 32.7799 14.3687 32.2683 15.4104L16.3045 47.9311C15.9139 48.7258 15.9611 49.6659 16.4295 50.4175C16.8978 51.169 17.7209 51.6256 18.6065 51.625H51.3935C52.279 51.6256 53.1021 51.169 53.5705 50.4175C54.0389 49.6659 54.0861 48.7258 53.6954 47.9311L37.7317 15.4104Z" stroke="#FB9826" stroke-width="2" stroke-linecap="round" stroke-linejoin="round"/>
</svg>
